<?xml version="1.0" encoding="utf-8"?>
<!-- Svg Vector Icons : http://www.onlinewebfonts.com/icon -->
<!DOCTYPE svg PUBLIC "-//W3C//DTD SVG 1.1//EN" "http://www.w3.org/Graphics/SVG/1.1/DTD/svg11.dtd">
<svg version="1.1" xmlns="http://www.w3.org/2000/svg" xmlns:xlink="http://www.w3.org/1999/xlink" x="0px" y="0px" viewBox="0 0 256 256" enable-background="new 0 0 256 256" xml:space="preserve">
<metadata> Svg Vector Icons : http://www.onlinewebfonts.com/icon </metadata>
<g><g><path fill="#000000" d="M236.3,102.8c2.5,0,4.7,1,6.7,3c2,2,3,4.6,3,7.6v29.1c0,3.1-1,5.6-3,7.6c-2,2-4.2,3-6.7,3H221c-1.5,0-3,0.8-4.4,2.3c-1.4,1.5-2.6,3.5-3.7,5.8c-1.1,2.3-2,4.6-2.8,6.9c-0.8,2.3-1.2,4.1-1.2,5.3c0,1.8,0.6,3.4,1.9,4.6l4.6,5.1c2.2,2.5,3.3,4.8,3.3,6.9c0,2.8-1.1,5.2-3.3,7.4l-19,18.9c-2.2,2.1-4.6,3.2-7.4,3.2c-2.8,0-5.1-1.1-6.9-3.2l-4.7-4.6c-1.5-1.5-3.2-2.3-5.1-2.3c-0.9,0-2.5,0.4-4.9,1.2c-2.3,0.8-4.6,1.8-6.9,3s-4.3,2.6-6,4.2c-1.7,1.5-2.6,2.9-2.6,4.2v14.8c0,2.8-1,5.2-3,7.2c-2,2-4.6,3-7.7,3h-26.4c-3.1,0-5.6-1-7.6-3c-2-2-3-4.4-3-7.2V222c0-1.2-0.7-2.6-2.3-3.9c-1.5-1.4-3.4-2.7-5.6-3.9s-4.4-2.2-6.7-3c-2.3-0.8-4.3-1.2-5.8-1.2c-2.2,0-3.9,0.6-5.1,1.9l-9.7,9.7c-2.2,2.1-4.8,3.2-7.9,3.2c-3.1,0-5.6-1.1-7.4-3.2L35,203.1c-2.2-1.8-3.3-4.3-3.3-7.4c0-2.8,1.1-5.2,3.3-7.4l10.2-10.2c1.5-0.9,2.3-2.5,2.3-4.6c0-0.3-0.4-1.6-1.2-3.9c-0.8-2.3-1.7-4.6-2.8-6.9c-1.1-2.3-2.4-4.5-3.9-6.5c-1.5-2-3.1-3-4.6-3H20.2c-2.8,0-5.2-1-7.2-3c-2-2-3-4.6-3-7.6v-29.1c0-3.1,1-5.6,3-7.6c2-2,4.4-3,7.2-3H35c1.2,0,2.6-0.8,3.9-2.3c1.4-1.5,2.7-3.4,3.9-5.5c1.3-2.1,2.2-4.4,3-6.7c0.8-2.3,1.2-4.2,1.2-5.8c0-2.1-0.6-3.8-1.9-5.1L35,67.7c-2.2-1.9-3.3-4.3-3.3-7.4c0-3.1,1.1-5.7,3.3-7.9l18.5-18.5c2.2-2.1,4.6-3.2,7.4-3.2c2.8,0,5.4,1.1,7.9,3.2l9.7,10.2c1.2,1.2,3.1,1.9,5.6,1.9c1.2,0,2.9-0.4,5.1-1.2c2.1-0.8,4.3-1.7,6.5-2.8c2.2-1.1,4.1-2.4,5.8-3.9c1.7-1.5,2.6-3.1,2.6-4.6V18.7c0-2.5,1-4.7,3-6.7c2-2,4.6-3,7.7-3h26.4c3.1,0,5.7,1,7.7,3c2,2,3,4.2,3,6.7v14.8c0,1.5,0.8,3.1,2.3,4.6s3.4,2.8,5.6,3.9c2.2,1.1,4.4,2,6.7,2.8c2.3,0.8,4.2,1.2,5.8,1.2c2.2,0,3.9-0.6,5.1-1.9l9.8-10.2c2.1-2.1,4.6-3.2,7.4-3.2c2.8,0,5.4,1.1,7.9,3.2l18.5,18.5c2.2,2.5,3.3,5.1,3.3,7.9c0,2.8-1.1,5.3-3.3,7.4l-10.2,9.7c-1.5,1.5-2.3,3.3-2.3,5.1c0,0.9,0.4,2.6,1.2,4.9c0.8,2.3,1.8,4.6,3,6.9c1.3,2.3,2.6,4.3,3.9,6c1.4,1.7,2.9,2.6,4.4,2.6H236.3z M128.2,162.4c9,0,16.7-3.3,23.2-9.7c6.5-6.5,9.7-15.3,9.7-26.3c0-8.9-3.3-16.6-9.7-23.1c-6.5-6.5-14.2-9.7-23.2-9.7c-9.3,0-17.2,3.2-23.6,9.7c-6.5,6.5-9.7,14.2-9.7,23.1c0,11.1,3.3,19.9,9.7,26.3C111.1,159.2,118.9,162.4,128.2,162.4z"/></g></g>
</svg>